<svg xmlns="http://www.w3.org/2000/svg" viewBox="0 0 24 24">
  <defs>
    <linearGradient id="grad" x1="0%" y1="0%" x2="100%" y2="100%">
      <stop offset="0%" style="stop-color:#ff3b3b;stop-opacity:1" />
      <stop offset="100%" style="stop-color:#c80d0d;stop-opacity:1" />
    </linearGradient>
  </defs>
  <rect width="22" height="22" x="1" y="1" rx="6" fill="url(#grad)" />
  <path d="M18 7.69a4.83 4.83 0 0 1-3.77-4.25V3h-3.45v13.67a2.89 2.89 0 0 1-2.88 2.5 2.89 2.89 0 0 1-2.89-2.89 2.89 2.89 0 0 1 2.89-2.89c.28 0 .54.04.79.1V10.01a6.33 6.33 0 0 0-.79-.05 6.34 6.34 0 0 0-6.34 6.34 6.34 6.34 0 0 0 6.34 6.34 6.34 6.34 0 0 0 6.33-6.34l-.01-8.8a8.18 8.18 0 0 0 4.78 1.52V5.57a4.85 4.85 0 0 1-1-.11z" fill="white" transform="scale(0.8) translate(3, 3)"/>
</svg>
